/* XPM */
static char *_c9e8401d1284cd0d18806abdec25d25pdLahFkuZ2oAordf[] = {
/* columns rows colors chars-per-pixel */
"48 92 64 1 ",
"  c #000001",
". c #010001",
"X c gray12",
"o c #2B230F",
"O c #373701",
"+ c #3B2F17",
"@ c #232323",
"# c #2F2F2F",
"$ c gray23",
"% c #43331B",
"& c #4B3B1B",
"* c #573F1F",
"= c #4F4F01",
"- c #6B6B01",
"; c #5F4323",
": c #6F4B27",
"> c #774F2B",
", c #4B4B4B",
"< c gray34",
"1 c #676767",
"2 c gray45",
"3 c gray50",
"4 c #83532F",
"5 c #8B5B33",
"6 c #935F37",
"7 c #9F633B",
"8 c #A3673F",
"9 c #AB6B43",
"0 c #B77347",
"q c #BF7B4B",
"w c #CB7F4F",
"e c #D38353",
"r c #DF8B57",
"t c #EB8F5B",
"y c #F3975F",
"u c #FF9F63",
"i c #FFA773",
"p c blue",
"a c #007FCF",
"s c #980088",
"d c gray56",
"f c #9B9B9B",
"g c #B7B7B7",
"h c #FFB383",
"j c #FFBF9F",
"k c #FFCFB3",
"l c LightGray",
"z c #EFEFEF",
"x c black",
"c c black",
"v c black",
"b c black",
"n c black",
"m c black",
"M c black",
"N c black",
"B c black",
"V c black",
"C c black",
"Z c black",
"A c black",
"S c black",
"D c black",
"F c black",
/* pixels */
"sssssssssssssssssssss$$$$$$$$sssssssssssssssssss",
"sssssssssssssssssss$$,$$$$$$,$$sssssssssssssssss",
"ssssssssssssssssss$,,,$#@@#$,,,$ssssssssssssssss",
"sssssssssssssssss$,,,$#@@@@#$,,,$sssssssssssssss",
"sssssssssssssssss$,,,$#@@@@#$,,,$sssssssssssssss",
"sssssssssssssssss<,,$#@@@@@@#$,,<sssssssssssssss",
"sssssssssssssssss$,,$#@@@@@@#$,,$sssssssssssssss",
"sssssssssssssssss$,<$#@@@@@@#$<,$sssssssssssssss",
"ssssssssssssssss$$,<$#$,,,,$#$<,$$ssssssssssssss",
"ssssssssssssssss$$$<<<111111<<<$$$ssssssssssssss",
"ssssssssssssssss$$<112333333211<$$ssssssssssssss",
"sssssssssssssss$# .oO=--oo--=O.. #$sssssssssssss",
"ssssssssssssss$@  o+&ap+oo+pa&+o  @$ssssssssssss",
"ssssssssssssss    +55**4e7>**55+    ssssssssssss",
"ssssssssssssss    *0thu4r74uht0*    ssssssssssss",
"ssssssssssssss    %qtuw,,45wutq%    ssssssssssss",
"sssssssssssssss    :etw,,@&wte4    sssssssssssss",
"sssssssssssssssss  :76fzzf@685&  sssssssssssssss",
"sssssssssssssss7qw  :<f  f$64:  qrrsssssssssssss",
"sssssssssssrrr77qw  &<1  1<::&  qqqqrwrsssssssss",
"sssssssssswrqwe88q;  #<$$<#&&  %q8886qtwssssssss",
"sssssssswr877*5>>7q  ##@@##e7  87>85*7ttr8ssssss",
"ssssssswqqe7&oo:*477   ##  8e7 :**8oo&7qqq8sssss",
"sssss;>60reyyyyrr84444 #%>rkktw%5qryyurur8>>;sss",
"sssss;>6rwqqwyrw8499hyt5qikww7whq4qrrwq79q8;;sss",
"ssss*&*>77680er847eeye5&tiyikturr640008756:*&*ss",
"ssss*&*>:>4567r;6qeehtw5&&09w7wur6;97654>::&&*ss",
"ssss*&*;:>4567q;4699he6&9iyykturr4;77654>:;&&*ss",
"ssss***;:>>>>47&&566rhq&&&89w7ww7;*44>>>>:;%%*ss",
"sssss+;;;;;;;;4&+;77re0:*7wijrw04+&4;;;;;;;%+sss",
"ssssss+&&&&&&&&4&+;;5q0:*&49q90:&&4>444>>;&+ssss",
"sssssss+++ooooooo+&&&;;%%%%%**&&%ooooooo+++sssss",
"sssssssss4%&&+;;+&>>59978&q7>9>:;o*%+oo+ssssssss",
"sssssssss4;57;::*:>>9qq+7;q9>8>00&74>oosssssssss",
"sssssssss>>87>05>6:>9qq75>q9:6>87>74;o+sssssssss",
"sssssssss>>95>8>>4:>89974>q9:4;>6*4;+o+sssssssss",
"ssssssssss>05>>>>>:>5::+:;q9:>*>>*;*o+ssssssssss",
"ssssssssss>wq8555*:*4;;*:&95;***;;;+;ossssssssss",
"ssssssssss>8wq854;*%*444&*55:;>>*:>o;ossssssssss",
"sssssssssss:6wq98>;*%%%ooo;5>;;>%:>oo+ssssssssss",
"sssssssssss*:565>*+****+++>>>**%%%oo+sssssssssss",
"sssssssssss           ffff           sssssssssss",
"sssssssssss           lgf2           sssssssssss",
"sssssssssss           gff1           sssssssssss",
"sssssssssssw05>>47776>>**>>9q008:44+osssssssssss",
"ssssssssssww05>5999986>*%>>90086:;4+oossssssssss",
"ssssssssswtyyyytq0qq06>*%>599978:::;++ssssssssss",
"ssssssssswyyyyyrq0qq06>*%>5999784>5;&++sssssssss",
"sssssssswtyyyytq0qqq06>*%>599978656;&++sssssssss",
"sssssssswtyyyytq0qqq06>%%>599998657;&++ossssssss",
"ssssssswtyyyyyrq0qqq06*+o*599998867:&++ossssssss",
"ssssssswtyyyytq0qqqq8>+oo%609998865:&++ossssssss",
"ssssssswtyyyyrq0qqq8>*oo%%%60098886:&++oosssssss",
"ssssssswtyyyyq0qqq8>;oo%%%%%60009765>*;%osssssss",
"sssssss6655>>>>>>>>;oo%%&%%%%%%%%%%%%%%oosssssss",
"sssssssqqqqqq8854:;%o%%&*%%;>58800ww4:&%osssssss",
"sssssss00qqtyw8995:;%%+o++*;:9wrrthu7:%+osssssss",
"ssssss0000ryuw80q8>;%%oss%*;79wrtuhu4*+++sssssss",
"ssssss999qyuuw80q84;%oosss*;79qrtuhh4%+oo%ssssss",
"ssssss99qtuiuw80q84;%oosss&;69qrtihh4%ooo%ssssss",
"sssss99qruiiu889084;%osssss*5699tihh66*oo%ssssss",
"sssss9qwtiiir78798>*%osssss***59tihh866*o*;sssss",
"sssss8wryiir955776>*osssssss*>8wtuihw886:;:sssss",
"sssss0ryihuw5:>575;%osssssss>8wqquihh88884:sssss",
"ssss80ruihu8*:>>4:%%osssssss8qq0quihh066884sssss",
"ssss0wruihu5*;:>;&++ssssssss699>ruihhe54688*ssss",
"ssss0wruihi5**5*&&+%ssssssss:5>>ruuihe54448*ssss",
"sss78wruihi;;>5*+++%ssssssss:;*8rtuiht*>:>5*ssss",
"sss78wruihe*;47*+++%ssssssss&%>ertyiyt**;::+ssss",
"sss77qrtui7*:>47*%+ssssssssss589eerrye4%***+ssss",
"ss>4>9qttt4;>444:*%ssssssssss4680e0wye6o%%%ossss",
"ss>:>59008**>44:;*sssssssssss:>68668qq5ooo%%ssss",
"ss*;:>4687**;;***%ssssssssssss::4444464&%&**ssss",
"ss&&*:>>>>*;*%+%*%ssssssssssss&&&&::57q7:@@sssss",
"sss@++&>75%&&+o%%ssssssssssssss@@#$@@     @sssss",
"sss@@@@@@@@@@@@osssssssssssssss@##$$@     @sssss",
"sss$$$@....@$#@ssssssssssssssss@##$,@     @sssss",
"sss<,$@....@,#@sssssssssssssssss@#$$@     @sssss",
"sss<,$@....@,##sssssssssssssssss@#$#@    @@sssss",
"sss,,$@....@$#ssssssssssssssssss@##$$    @ssssss",
"sss$$$@....@##sssssssssssssssssss@#$,     ssssss",
"ssss$$@....@@#sssssssssssssssssss@#$$@     sssss",
"sssss,#X...@#sssssssssssssssssssss@#$@     @ssss",
"ssss,$@....@#sssssssssssssssssssss@#,#@@@   ssss",
"ssss@$@@..@@#ssssssssssssssssssssss@,2<@    ssss",
"sss@$#@...@$##ssssssssssssssssssss@$,,@..   @sss",
"ss$#$@....@#@#ssssssssssssssssssss$<<,@@X    @ss",
"s@@$@.....#..#ssssssssssssssssssss$<$<2,$@@ @@@s",
"@@#@@X.......#ssssssssssssssssssss@#.,1<#@    @ ",
"@...X@@@....ssssssssssssssssssssss@..@,1d1<$  @ ",
"@..........sssssssssssssssssssssssss  @$<$$@@@@ ",
"s.........sssssssssssssssssssssssssss @$<@@@@@@ "
};
