/* XPM */
static char *b415ad21a67646b9dbed0a6b8cb8470aykDJ9IXwwBIVHLZS[] = {
/* columns rows colors chars-per-pixel */
"128 124 64 1 ",
"  c #000001",
". c gray12",
"X c #232323",
"o c #2F2F2F",
"O c gray20",
"+ c #373737",
"@ c gray23",
"# c #570001",
"$ c #630001",
"% c #6F0001",
"& c #770001",
"* c #434301",
"= c #4F4F01",
"- c #5F5F01",
"; c #6B6B01",
": c #777701",
"> c #434343",
", c #4B4B4B",
"< c gray34",
"1 c #5B5B5B",
"2 c #676767",
"3 c gray45",
"4 c #7B7B7B",
"5 c gray50",
"6 c #830001",
"7 c #8F0001",
"8 c #9B0001",
"9 c #A70001",
"0 c #B30001",
"q c #BF0001",
"w c #CB0001",
"e c #D70001",
"r c #E30001",
"t c #EF0001",
"y c #FF0001",
"u c #9F4F01",
"i c #B75701",
"p c #CF6301",
"a c #E76F01",
"s c #FF7B01",
"d c #F35353",
"f c #878701",
"g c #939301",
"h c #9F9F01",
"j c #AFAF01",
"k c #BBBB01",
"l c #FF8B23",
"z c #C7C701",
"x c #D7D701",
"c c #E3E301",
"v c #EFEF01",
"b c #FFFF01",
"n c #FF9B43",
"m c #FFFF57",
"M c gray56",
"N c #9B9B9B",
"B c gray67",
"V c #B7B7B7",
"C c #BBBBBB",
"Z c #C3C3C3",
"A c LightGray",
"S c #DFDFDF",
"D c #EFEFEF",
"F c white",
/* pixels */
"<<<<<<<<<<<<<<<<<<<<,,X<35MM555MMMMMMMMMMMMMMMMM5532<XXX@@@@o<23355555555555555333<oooXX@>,,,,,,,,,,,,,,,,,,<<<<<<<<<<<<<<<<<<<<",
"<<<<<<<<<<<<<<<<<<<<,,2BASSZZAAASSSAAASASAAAAZVBBBZSZ<XX@@@,NZVBVVVVBBBBVBBNBBNNN53<ooXX@,,,,,,,,,,,,,,,,,,,,,,,,,,,,,<<<<<<<<<<",
"<<<<<<<<<<<<<<<<<<<<,,BASAZBZAZBZZZBBBZZZVBBVVBNNM5BMMXX@@oNAVBNBBBBNNNNBNBNBBNMN52<@oXX@>135555555555553322<,,,,,,,,,,,,,,,,,,,",
",,,,,,,,,,<<<<<<<<<<,,ZSAZBBBBBBAMBMMNNMBNNN5MMMMB5MMMXX@@3ZAVNMMMNNMMNMMNMNMNMM532<@oXX@>25MMMMMMMMMMMM553322<,,,,,,,,,,,,,,,,,",
"555555555533222<,,<<,,ZSAVBZNBMABZM5NMM5NB5MBMBBNNM33MXX@@MZABNNNMNNMMNMMNMMNNMB532<@oXX@,3MBZAAAAAAAAAZZZVVBBBBNBNNNNNM55555555",
"VVVVVVVVVBBNNM53@,<<,,ZSAVBBVMNNZBBMMMMM55MNMBMMBNM323XX@@MZABBNBMMMMNNMNMNNMMMM532<@oXX@,3NZASSSSSSSSSSSAAZZZZZVVVVVVVVVVVVVVVV",
"ZZZZZZZZVVBzzzzkj:<pspZSABBBBBNZNMNMBN5MMMMMM5MBMBN3<2XX@@MBABMMMMNMNNNNNMMMMMMM52<<@oXX@,3NASSSAAAAAAAASSSpspZBjkzzzzAAAAAAAAAA",
"ZZZZZZZZZZzcbFmbbvzzbnn,Xo2NBMNBNBNB5BMMBNMMBM5M5B53<<XXO@MBVBMMNMNMNMNMMNMMMMMM52<<@oXX@,3NASAAZZZZZZ5@X,nnbzzvbbmFbczZZZZZZZZZ",
"MMMBNNBzvbbhfkcvFFvbFvxn X@<jzzzzzzzzzzzzzzzzzzzzzzzzzzzzzzzzzzzzzzzzzzzzzzzzzzzzzzzzzzzzzzzzzzzzzzzj<@X nxvFbvFFvckfhbbvzMNNNNN",
"M5MMMMzvbFFvvvvbvvvcmxbn X,oXgzbbbbbbbbbbbbbbbbbbbbbbbbbbbbbbbbbbbbbbbbbbbbbbbbbbbbbbbbbbbbbbbbbbbzgXo,X nbxmcvvvbvvvvFFbvzBMBNN",
"B5BN55zvbbbbccbvbvbzcnxnu=X ,ouggggggggggggggggggggggggggggggggggggggggggggggggggggggggggggggggggguo, X=unxnczbvbvbccbbbbvzMNBBB",
"5MMN55js322gghjkkzzhzljyuu=Xoo uuuuuuuuuuuuuuuuuuuuuupaapupapuuuuuuippiuipiuuuuuuuuuuuuuuuuuuuuuuu ooX=uuyjlzhzzkkjhgg333sjMBNBB",
"N5B5M5322322<<,>Xo-fpp0SABt0   0$   ......XX...X..X...oo..ooo...XX.ooooXooo.XX........  ...XoXXX$0   000<<0ppf2<<233333335MBMMNN",
"MN5MM33232322<,>Xooo,,ZSANyt;**;q6$ +@@@>@@@>@@>+@>+oX  ooooooO++@@>>@@@@@@@>++Oooooo   XX+>+X$6q;**;q00,33233322323323533NMNMMN",
"5M5M555353552<,>Xooo,,ZSAByy;::=wq0986&%oo@@,,,1,,<>+>XXXo@@O@@@>,,,,,,,,,,,,>OOOOOOoXXoO@>+&90qw-::=q00,,5332355535535555MMMNMM",
"NNMMM5NMMMM3<,,@Xooo,,VAAByyeqqerwqq00987776@@@@,,,,,,<<<<<<<<<<<<<<<<<<<<<<<<<<,,,,,,@@@0weryyyreq90q00,,5M555MNM55NM5M5MMNMM5M",
"MMM5MNNMMNM3<,,@Xooo,,BAANyyttrrreeewwqq00999900qwertyDF22FDyrewq099NM  53987788990qwertyyyyyyyytrewqq00<23BMMMMMMNN5NN5N5MMM5N5",
"M5BMBMNN5532<,@oXooo,,BAAByyttrrreeewwqq00999900qwertyDF22FDyrewq099NM  53987788990qwertyyyyyyyytrewqq00113NNNMMMNM5M5MN555M5N5M",
"3M353333<<,,>@oXXooo,,MASByyttrrreeewwqq00999900qwertyDF22FDyrewq099NM  53987788990qwertyyyyyyyytrewqq00<<2MMMM5M5M55M55M3M353M2",
"32222222<,>>@oXXXooo,,MVSVyyttrrreeewwqq00999900qwertyDF22FDyrewq099NM  53987788990qwertyyyyyyyytrewqq00112553353532535353232323",
"<<<<<,,,,>OoXXXXXooo>,3VSVyyttrrreeewwqq00999900qwertyDF22FDyrewq099NM  53987788990qwertyyyyyyyytrewqq00,,<2<<<<<<<<<<2<2<,<,,<,",
",>>>@@@@@OoXXXXXoooo>,3NSZyyttrrreeewwqq00999900qwertyDF22FDyrewq099NM  53987788990qwertyyyyyyyytrewqq00>><<<,,,,<<,,<,<,,,,,,,,",
"ooooXXXXXXXXooooOO@@,<,MZZyyttrrreeewwqq00999900qwertyDF22FDyrewq099NM  53987788990qwertyyyyyyyytrewqq00+o>,@@@@@@@@@@oooooooooo",
"XXXXXXXXXooooooOOO@@,<,5ZAyyttrrreeewwqq00999900qwertyDF22FDyrewq099NM  53987788990qwertyyyyyyyytrewqq00XX+@@@@ooooooooooooooooo",
"ooooooooooooooooOO@@,<,2VAyyttrrreeewwqq00999900qwertyDF22FDyrewq099NM  53987788990qwertyyyyyyyytrewqq00XXo+++ooXXXXXXXXXXXXXXXX",
"ooooooooooooooooOO@@,<,,BAyyttrrreeewwqq00999900qwertyDF22FDyrewq099NM  53987788990qwertyyyyyyyytrewqq00XXXoooooooXXXXXXXXXXXXXX",
"@@@@@@@@@@@@@@@@@@@@,<,,NZyyttrrreeewwqq00999900qwertyDF22FDyrewq099NM  53987788990qwertyyyyyyyytrewqq00..XXoo@@@@@@@@@@@@@@@@@@",
"@@@@@@@@@@@@@@@@@@@@,<,,MZyyttrrreeewwqq00999900qwertyDF22FDyrewq099NM  53987788990qwertyyyyyyyytrewqq00XXooo@@@@@@@@@@@@@@@@@@@",
"<,>>@@@@@@@@@@@@@@@@,<,,3Vyyttrrreeewwqq00999900qwertyDF22FDyrewq099NM  53987788990qwertyyyyyyyytrewqq00ooooo@@>,,,,,,,,,,,,,,,,",
"<<<<<<<<<,,,,,@@@@@@>,,,2Byyttrrreeewwqq00999900qwertyDF22FDyrewq099NM  53987788990qwertyyyyyyyytrewqq00oooo@@>,,,,,,,,,,,,,,,,,",
"NNNNNMMMMM5322222<@OO@,<,Myyttrrreeewwqq00999900qwertyDF22FDyrewq099NM  53987788990qwertyyyyyyyytrewqq00+,355MNNNNNNNNNNNNNNNNNN",
"VVVVVVVVVBBNNNNM52oooO,<,5yyttrrreeewwqq00999900qwertyDF22FDyrewq099NM  53987788990qwertyyyyyyyytrewqq00,15MBVVVVVVVVVVVVVVVVVVV",
"SSSSSSSSSSSAVBNM52@OoO@<,2yyttrrreeewwqq00999900qwertyDF22FDyrewq099NM  53987788990qwertyyyyyyyytrewqq0025NBSSSSSSSSSSSSSSSSSSSS",
"ZZZZZZZZCCZCVBM532@OoO@<<,yyttrrreeewwqq00999900qwertyDF22FDMNBBBN3<NM  53987788990qwertyyyyyyyytrewqq002MNBZZZZZZZZZZZZZZZZZZZZ",
"VBVVVBBBBNBNMN5332@OXO@<<,yyttrrreeewwqq00999900qwerdNDD22FDSSDDSSAVNN  532,7788990qwertyyyyyyyytrewqq0025MVVVBBBBBVVBBVVVVBVVVV",
"VBBBBBBBBNBMNM5332@OXO@<<,yyttrrreeewwqq00999900qwdNAADZ22FDDDDDSSAAVN  55552,88990qwertyyyyyyyytrewqq00<55BBBBBBVBVBBBBBBVBBBBB",
"MNNBMMMNMBBMBN5332@OXO@,<<yyttrrreeewwqq00999900q3VSV5<<22FFDDDDSSAAVN    o<553,990qwertyyyyyyyytrewqq00<44BNBNBBNNNBBBNNNMNNBNN",
"BMNMBBNBBMNBMN532<@OXo@,<<yyttrrreeewwqq009999003VS5,,<<25FFDDDDSSAAVN      o<352,0qwertyyyyyyyytrewqq00<45NBNNNBBNNMBMBNNBMNMNN",
"MNBBMNNNBNMVBN532<@OXo@,<<yyttrrreeewwqq00999903ZB,o,,5BSSAZVBNMMMMMNNNNN3@   o<MN3qwertyyyyyyyytrewqq00<34BNVNNNMMNBMBMBBMNBNMB",
"BMNMBBNMNBBNMM532<@OXo@,<<yyttrrreeewwqq0099993NM,o@,BFAN532<<,,@oXXXX  @<33@   o3B3wertyyyyyyyytrewqq00<34NBMNBNNNNMBNNMNBMNMBN",
"NBBMNNNBNMNMVN532<@OXo@,<<yyttrrreeewwqq009992NM@o@3ASV32222355552>>>>XX  o,52@  o3B3ertyyyyyyyytrewqq00,23MBNBNBNMBNMMBMMNBBNNM",
"BMNBBMNNBBMMBN522<@OXo@,<<yyttrrreeewwqq0099<MM@o@3SV3<<3NSFDDDDSSAAVVM3o   @23<  o5V3rtyyyyyyyytrewqq00,22NMBMNMMBNMMMNNNBMNBNN",
"MMBNBBNMBBNBNN52<<@OXoO@<<yyttrrreeewwqq009<3Mo o3SN<,<NAFB3,,2BSSAAVVBB5<o   ,3<  oMV3tyyyyyyyytrewqq00,23BMMBBNMNNMMMMBBMMBMVB",
"NBNBMNNBBNBMBN52<,@OXoO@,<yyttrrreeewwqq00935< X3VN<o,AFFM2<,@@,MSAAVVBBNN3<   ,3<  oVNtyyyyyyyytrewqq00,23NNNMMBMMMNMBMBNNBNBMN",
"BNBNNMVMMNMNBN52<,@OXo@@>@yyttrrreeewwqq00<52 X3VN,o<AFSM3,,,@@,<BAAVVBBNNMM5@  ,3<  <A5yyyyyyyytrewqq00,24NMBNMMBMBNNNNBNBNBNMN",
"NBMBNBBBMNNNMN52<>@OXo@@2Byyttrrreeewwqq0035X <VN<o<AFSM2<,,,@@,,2AAVVBBNNMM55@  ,3,  MNyyyyyyyytrewqq00,13NMBMNMMMNMBMMMBNBMNNB",
"MNBBMBNNBBMNMN52<>@OXo@@BSyyttrrreeewwqq0<5< @NN<o<SFSM2<<,,,@@,<MAAVVB5,oo1553@  ,3@ ,Vyyyyyyyytrewqq00,<3NBBNBMMNNMMBMBMMNBBMM",
"MMNMMMBMMNMNMM3<,>@OXo@@SZyyttrrreeewwqq0M5X 3N<o<SSSM2<<<,,,@@<MSAAVV3o  oo,533@  <2  V5yyyyyyytrewqq00>,3MNBBNMMNNNMNNMMMMNNMM",
"55MMMMMMMBMMM52<>@@OXo@@SByyttrrreeewwqq2M< @N3o,NSSB2<<<<,,,@2MZSAAV3X     o,333@ o3@ 5Nyyyyyyytrewqq00>>255555555555555555MMM5",
"22222222255532<,>@@OXo@@SByyttrrreeewwqq23X 3N,X<ZSZM<<<<<,,,,MZSSAA3@.      o,353@ << ,Vyyyyyyytrewqq00+o>222222222222222222222",
",<<<<1122222<,>@@@@OXo@@SBFFFFDSAZVBNMMMM2 XM2X,NZSZ2<<<<<,,,3BZSSAN@..       o,552Xo3@@VDDDDDSSAZVBNM53.X+@,,,,,,,,,,,,,,,<<<<,",
",,,,<,<<<<<,>>@@@OOoXo@@SBFFFFDSAZVBNMMMM, ,M@ 3ZZSB2<<<<<,,,2MZSSN@X..        o35M@ <2 VDDDDDSSAZVBNM53X.ooO@@@@@@@@@@@>>,,,,,,",
",,,,,,@@@@@@OOOOoXXXoO@@SB5532<,@@ooXX    @22XoNZZSS5<<<<<,,,@<MZZ<XX..         o3M, ,5 o,22222<,@oX    oXoXXXXXXXXXXXXooo++@>,,",
">>>@@@OOOOOOoooXXoooO@@@SB5532<,@@ooXX    @3< ,VZZSSZ5<<<<,,,@@<<<XXX..          oM3 oM o,22222<,@oX    ooooXXXXXXXXXXXXXXXo+@@@",
"XXXXXXXXXXXXoooooO@>>,,,SBFFFFDSAZVBNMMMM533, 5ZZZSSFZ5<<<,,,@@@ooXXX..           M5  MZADDDDDSSAZVBNM53oooooooooooooooXXXXXXXXX",
"XXXXXXXXXXXXoo@@@>,<,,,,SBFFFFDSAZVBNMMMM533@ MZZZSSFFZ5<<,,,@@@ooXXX.. oo        M5  5VADDDDDSSAZVBNM53oooo@@@@@@@@ooooooXXXXXX",
",>,,,,<<<22222222222<>XXSByyttrrreeewwq,M533X VZNNSSFFFAM<,,,@@@ooXXX..o33o       M5  5VAM,yyyyyrrwwqq00oooo@><<<,,,,@@@@@@@@@@@",
",,222233MMNNMMMMMMMM,,XXSByyttrrreeewwq<M533  ZB@@3ZFFFFSM,,,@@@ooXXX.o2NN3o     3M5  5VAM<yyyyyrrwwqq00ooo@>><<<<<<<<<,,@@@@@@@",
"22MMVVSSSSSSAAAAAABB<@XXSByyttrrreeewwq2M533  ZM@o@2AFFFFS<,,@@@ooXXXo2BNNM3o  o35M5  5VAM2yyyyyrrwwqq00>13MNNM322<<,,,,,,,,,,<<",
"23MMVBBBBBBBBBBBBBNB<@XXSByyttrrreeewwq2M533  Z3@o@@3AFFFA<,,@@@ooXXXo@2NNMM5oo<55M5  5VAM2yyyyyrrwwqq0023NBVBBNM55322<<,,,,,,<<",
"25BNMMBMMNNNBVBZNNNN<@XXDByyttrrreeewwq<M533  Z<@o@@,MAFAM,,,@@@ooXXX..@2NMM553355M5  5VAM<yyyyyrrwwqq0025MZZVVZASSSSSSABM3<,,,<",
"25BNMMM5NMM5NNNNBNNN<@XXDByyttrrreeewwq,M533X V<@o@@,,<MM<,,,@@@ooXXX..  2MM553355M5  5VAM,yyyyyrrwwqq00345ZVZZVVVVVZVZVVB5<,@,<",
"25ZBMBBMMMMMNBNNNNBM<@XXDBFFFFDSAZVBNMMMM533@ M<@o@@,,<<<<,,,@@@ooXXX..   2M553355M5  5VADDDDDSSAZVBNM5343MVZVBBBNBNBNMNMM5<,@,<",
"25ZBMMNMBN5NMMNNBMNM<@XXDBFFFFDSAZVBNMMMM533, 55@o@@,,<<<<,,,@@@ooXXX..    2553355M5  MZADDDDDSSAZVBNM53345VBVBNBBNNBMN5M55<,@,<",
"25ZBMBNB5BMMBNNMMNBN<@XXDB5532<,@@ooXX    @3< ,Z<o@@,,<<<<,,,@@MSMXXX..     253355M3 oM o,22222<,@oX    435ZVBNBNBNBMM55532<,@,,",
"25ZBMM5NBMM5MNMVMMNN<@XXDB5532<,@@ooXX    @22XoNN<,@,,<<<<,,,@5DSSMXX..      23355M, ,5 o,22222<,@oX    325BBNBNBNBMNN55323<,@@,",
"25ZVMVMBM5MBMMMBNNMN<@XXSBFFFFDSAZVBNMMMM, ,M@ 3ZN5,,,<<<<,,,3ZDSSAMX..      o3355MX <2 VDDDDDSSAZVBNM53235BNNNBNNMNM555332<,@@,",
"25ZCNMNMBM5MNMBNMNNN<@XXSBFFFFDSAZVBNMMMM2 XM2X,NZN5,,<<<<,,3ZDDSSAA<..       33552 o3@ VDDDDDSSAZVBNM53214NBBNNNN5M5535523<,@@,",
"25ZBBMMMN5MM5BMBNMMM<@XXSByyttrrreeewwqq23X 3N,X<ZSVM,<<<<,3ZDDDSSAB2o.       3355@ << ,Vyyyyyyytrewqq00123BBNNNNMM55553232<,@@,",
"25ZVMB5M5M5MMMNM5M5M<@XXSByyttrrreeewwqq2M< @N3o,NSSSM<<<,MSDDDDSSB2oo.      @335@ o3@ 5Nyyyyyyytrewqq00213BNBNNMM555M35323<,@@,",
"25ZCNBMN5MMMBN5MN555<@XXZByyttrrreeewwqq0M5X 3N<o<SSFFAAAAFFDDDDSV2oo..      533,  <2  V5yyyyyyytrewqq00<13NBNNMN5M55355232<,@@@",
"25ZCBMBMMB5BMMM5MM53<@XXZByyttrrreeewwqq0<5< @NN<o<SFFFFFFFFDDDDS2ooX..     253<  ,3@ ,Vyyyyyyyytrewqq00,,2MNMM5M355353232<<,@@@",
"25ZBBBMMMMBMNM5M5M35<@XXVByyttrrreeewwqq0035X <VN<o<AFFFFFFFDDDDS2oXX..    255<  ,3,  MNyyyyyyyytrewqq00>><3555335232222<2<,@@@@",
"25ZVMB5BNNM5M5MMNN53<@XXVVyyttrrreeewwqq00<52 X3VN,o<AFFFFFFDDDDSV<XX..   255@  ,3<  <A5yyyyyyyytrewqq00Xo>,<<<<<<<<<<<<<<,@oo@@",
"25ZCNNBMNMMNMMVMMM55<@XXNVyyttrrreeewwqq00935< X3VN<o,AFFFFFDDDDSSV<X..  22<o  ,3<  oVNtyyyyyyyytrewqq00..XXooooooooooooooXXo@@@",
"25ZVBBNMMNNMNMBNM5N5<@XXNVyyttrrreeewwqq009<3Mo o3SN<,<NFFFFDDDDSSAB<X. 2<@   ,3<  oMV3tyyyyyyyytrewqq00X.oooooooooooooooooo@@@@",
"25ZCNNMNMNMNMBNMNM55<@XX5Byyttrrreeewwqq0099<MM@o@3FV3<<3NSFDDDDSSAAVBM3o   @23<  o5V3rtyyyyyyyytrewqq00oooooo@@@@@@@@@@@@@@@@@@",
"25ZBBBMMBBMBMBBNMN33<@XX5Nyyttrrreeewwqq009992NM@o@3AFV322235MNNNN52,@XX  o,52@  o3B3ertyyyyyyyytrewqq00oooooo@@@@@@@@@@@@@@@@@,",
"25ZCMMBBNNBMB5M5NMN5<@XO<Nyyttrrreeewwqq0099993NM,o@,BFAN532,,,,@@XXXX  @<33@   o3B3wertyyyyyyyytrewqq00++@@,,<<<<<<<<<<<<<@@@,<",
"25ZBBNNBNNVBBMMNNM53<@XO<Nyyttrrreeewwqq00999903ZB,o,,5BSSAZNM55555MNBBBN3@   o<MN3qwertyyyyyyyytrewqq00,,<2355555555555552,@@,<",
"25ZBMNBMBNNMNNBMM553<@XO,5yyttrrreeewwqq009999003VS5,,<<25FFDDDDSAZVVV      o<35520qwertyyyyyyyytrewqq00235NZAAAAAAAAZZVBB5<@@,<",
"25ZBMBNMMNMVMNNBMN33<@XO,5yyttrrreeewwqq00999900q3VSV5<<22FFDDDDSAZVVVoX  o<5532,90qwertyyyyyyyytrewqq003MNZASSSSSSSSAZVBN52@@,<",
"25ZCMNMVNMMBNNMMM532,@oO,,yyttrrreeewwqq00999900qweNAADZ22FDDDDDSAZVVVoXM55552,8990qwertyyyyyyyytrewqq005MNASSSSSSSSAAVVNM22oo,,",
"25CBBMNNBMBNMNBMN52<,XoO,,yyttrrreeewwqq00999900qwertNDD22FDSSDDSAZVVVoXM52,7788990qwertyyyyyyyytrewqq0044MZZZZZZZVVZZZBM522oo,,",
"25ZCNNMBMBMBNMN5M5<<,XoO,,yyttrrreeewwqq00999900qwertyDF22FDMNBBBN3<VVoXM5887788990qwertyyyyyyyytrewqq00344VZZVVVVBVVVBN552<@o@,",
"25CBBBBMNMNM5N55N5<<@Xo@,,yyttrrreeewwqq00999900qwertyDF22FDytrewq09VVoXM5887788990qwertyyyyyyyytrewqq00223BNBBBVBVBBBNM552<@o@,",
"25VBMMBBMN5MN55N55<,XX@@,,yyttrrreeewwqq00999900qwertyDF22FDytrewq09VVoXM5887788990qwertyyyyyyyytrewqq00<12BMNNNBNBVNBMM532<@o@@",
"23NBNNNMNMM5MM5553<,XX@@,,yyttrrreeewwqq00999900qwertyDF22FDytrewq09VVoXM5887788990qwertyyyyyyyytrewqq001<4NMVBBMBNBNMNM532<@oo@",
",2NNNNMNMM5M555553<@XX@>,,yyttrrreeewwqq00999900qwertyDF<2FDytrewq09VVoXM5887788990qwertyyyyyyyytrewqq00213BNNMMNMVNBNMM532<@oo@",
",2NNNNM5M55M5M5532,oXo@>,,yyttrrreeewwqq00999900qwertyDF<2FDytrewq09VVoXM5887788990qwertyyyyyyyytrewqq00<24MNMVMMMBMN5MM532<,oo@",
",2NNNN5M5M55M5M22<oXoO@>,,yyttrrreeewwqq00999900qwertyDF<2FDytrewq09VVoXM5887788990qwertyyyyyyyytrewqq002<2NMMBNNNMN5MM5532<,oo@",
",,NNMM35555552<<,oXooO@>,,yyttrrreeewwqq00999900qwertyFF<2FFytrewq09VVoXM5887788990qwertyyyyyyyytrewqq00122BMBNMNNNMM5MM532<,oo@",
",,355522222<<<<,oXoooO@>,,yyttrrreeewwqq00999900qwertyFF<2FFytrewq09VVoXM5887788990qwertyyyyyyyytrewqq00<23MBMBNMBMN5M5M532<,Xo@",
",,<222<<,,,,>>@XoooooO@>,,yyttrrreeewwqq00999900qwertyFF<2FFytrewq09VVoXM5887788990qwertyyyyyyyytrewqq00<<3NMNM55NMMM5M5532<,Xo@",
",,>>@@@OOOOOOOOoooooO@>>,,yyttrrreeewwqq00999900qwertyFF<<FFytrewq09VVoXM5887788990qwertyyyyyyyytrewqq00<<2MN5MN5M5B5M5M532<,Xo@",
",,>@OOOooooooooooooOO@>>,,yyttrrreeewwqq00999900qwertyFF<<FFytrewq09VVoXM5887788990qwertyyyyyyyytrewqq002<3MNMNMNMMMM5MM532<,Xo@",
"<<<<,,>@@OooooooooooO@>>@@yyttrrreeewwqq00999900qwertyFF<<FFytrewq09VVoXM5887788990qwertyyyyyyyytrewqq00<,3M5M5MM5M55MM5532<,Xo@",
"<<,,,,,,>@OOOoOooooo@@>>@@yyttrrreeewwqq00999900qwertyFF<<FFytrewq09VVoXM5887788990qwertyyyyyyyytrewqq001<2NN5MN5M5M5N55532<@Xo@",
",,,@@@@@,>>>>@OOOOoo@@>>@oyyttrrreeewwqq00999900qwertyFF,<FFytrewq09VVoXM5887788990qwertyyyyyyyytrewqq00<,255M5MM5M55M5M532<@Xo@",
",,@@@<<333332<<@@@@@@@@@@oyyttrrreeewwqq00999900qwertyFF,<FFytrewq09VVoXM5887788990qwertyyyyyyyytrewqq00,<25M55MMM55M5M533<<oX@@",
",@@2MNNVVVVBM53<<<,@@@@@@oyyttrrreeewwqq00999900qwertyFF,<FFytrewq09VVoXM5887788990qwertyyyyyyyytrewqq00,,<555M5M5M5M55322<,oX@@",
",@2MZASSSSAAAVBN53<<<<,@@oyyttrrreeewwqq00999900qwertyFF,<FFytrewq09VVoXM5887788990qwertyyyyyyyytrewqq00,,2355355355553222<,XX@@",
"@@5ZAAZZZBBVZAAAZVN53<<,,@yyttrrreeewwqq00999900qwertyFF,,FFytrewq09VVoXM5887788990qwertyyyyyyyytrewqq00,,<33333333322222<,@oo@@",
"@@MZAZVBBBBBVVVZASAZBN53<,yyttrrreeewwqq00999900qwertyFF,,FFytrewq09VVoXM5887788990qwertyyyyyyyytrewqq00++,<<<<<<<<<<<<<,,@@oo@@",
",@NAZVBBVBBBBBBBVVASAZZVN5yyttrrreeewwqq00999900qwertyFF,,FFytrewq09VVoXM5887788990qwertyyyyyyyytrewqq00oo>,,,,,,,,,,@@@@@oo@@@,",
",@NAVBNNNNNNNNNNBBBZZAAACByyttrrreeewwqq00999900qwertyFF,,FFytrewq09VVoXM5887788990qwertyyyyyyyytrewqq00XX+@@@@@@@@ooooooooo@@,,",
",@NAVBMMMNMVNNMMNBBBBZASSAyyttrrreeewwqq00999900qwertyFF,,FFytrewq09VVoXM5887788990qwertyyyyyyyytrewqq00..oooooooooooooooo@@@,,,",
",@NAVNMNNMMBNBBNMNMNNNBZZZyyttrrreeewwqq00999900qwertyFF,,FFytrewq09VVoXM5887788990qwertyyyyyyyytrewqq00..Xooooooooooooo@@@@,,,,",
",@NZVNBMBMBNMBMMMNMVMMNBBVyyttrrreeewwqq00999900qwertyFF,,FFytrewq09VVoXM5887788990qwertyyyyyyyytrewqq00XXXoo@@@@@@@@@@@@@,,,,,<",
",@NVVMMBNNNNNMMNNMMBNMMBVByyttrrreeewwqq00999900qwertyFF,,FFytrewq09VVoXM5877778990qwertyyyyyyyytrewqq00XXXoo@@@@@@@@@@@,,,,,,<<",
",@NZVMBNMNBMNMBMBMBNMNNNNByyttrrreeewwqq00999900qwertyDD,,DDytrewq08BBoXM586%&67990qweeryyyyyyyyrrewqq96XXXoo@,,,,,,,,,,,<<<<<<<",
",@NVVBMBNMNMNMMBNBMBNMNMMNM3<<<<<<<<<<<<<<,,,,@@@@8888BB  BB8888888833  22 ....##%790qeeerttttrrrreq97&XXXoo@,,,,,,,,,,,,,<<<<<<",
",,NVVNBNNNBMMMNBNMBMMBMMNNNN22<3<<1<12111<1<12111<<<,,,,,,@@@,,@,+X...XXXX@,,,,<<<<11111,>+oooooo,<<<<<22335BBBBBBBNMM53<,,,,,<<",
",,MBVNNNNNBVMVBMMBNBMBMNBNBNM3233321421232<12121<122<1211211<<1,<+X...XXXo<22223233344442,>+oooo,355554444MZAAAAZZAZVVVB52,,,,<<",
",,3MMBNBBNNNZNNNNNBNNBNMNMMBN3M3MM34334334323224332234244232322<2,+oXXXXoo2454545545454553<>oo>25NM55444555VVVZZZVVVVVBBBN<,,,<<",
",,<355MNMVBBMBMBNNBBNNMNNNMMNMBBMBMBMVBBNNMNNNMMNMNMMMM3353355322<@oXXooo@MBVVBVBVBMMMMMM52,oo2MBNMMMMMM5MNBBBBBBNBBBBNBNM5<,,<<",
",<@<3222333332333333322233222233222222255532552<@<<22<22<<2<<<<<<@@oXXo@@,MBBBVBVBVBVBBNNM5<@@5VABBNBBNBBBBBBBNBNBBBBNBNNM5<@,<<",
",,@@@,>>>>>>>>>>>>>>>>>>>>>>>>>>>>>>@@>>>>>>>>>@@@@@@@@@@@@@@@@@@@oXXXo,,,MMNNNNNNNNNNNNMM52,,BZBNBNMBBNBNBNNBNBBNBNBNNMNM5<o@<<",
",,@@@oooooooooooooooooooooooooooooooooooXXXXXXXXXXXXXXXXXXXXXXXXXXXXXXo,,,<5555555555555552<,,NBBNMNMNNMNNMNNMNMNMNMNNMNMM5<o@<<",
",,>@OooooooooooooooooooooooooooooooooXXXXXXXXXXXXXXXXXXXXXXXXXXXXXXXXXo,,,@<<2222223333222<,,,5NMMMMMMMMMMMMMMMMMMMMMMMMMM3<o@<<",
"<<,,@@@@@OOOOOOOOOOOOOOOOOOOOOOOooooooooooooooooooooooooooooooooooooooo,@@@@@,,<<<<2222<,@oo@@23555555555555555555555555532<o@<<",
"<<,,@@@@@@ooooooO@@@@@@@OOooooooooooooooooooooooooooooooooooooooooooooo,@@@@@@@oooooooooooo@@@,<<<<<<<<<<<<<<<<<<<<<<<<<<<<@o,<<",
"<<<<<<<,,>>>>>>>,,,,,,,,@@@@@@@@@@@@@@@@@@@@@@@@@@@@@@@@@@@@@@@@@@@@@@@@@@@@@@@@@@@@@@@@@@@@@@@@@@oooooooooooooooooooooooooo@,<<",
"<<<<<<<<,,,,,,,,,,,,,,,,@@@@@@@@@@@@@@@@@@@@@@@@@@@@@@@@@@@@@@@@@@@@@@@@@@@@@@@@@@@@@@@@@@@@@@@@@@@@@@@@@@@@@@@@@@@@@@@@@@@,,,<<"
};
